{"title":"Transcendence 2014 BRRip 1080p AC3 x264","uid":10756277,"size":2123038245,"categoryP":"video","categoryS":"hd___movies","magnet":"?xt=urn:btih:fbe33fe0622d8fe1036748c995e97eab55f53c1d&amp;dn=Transcendence+2014+BRRip+1080p+AC3+x264&amp;tr=udp%3A%2F%2Ftracker.openbittorrent.com%3A80&amp;tr=udp%3A%2F%2Fopen.demonii.com%3A1337&amp;tr=udp%3A%2F%2Ftracker.coppersurfer.tk%3A6969&amp;tr=udp%3A%2F%2Fexodus.desync.com%3A6969","seeders":1,"leechers":1,"uploader":"pitbulldog911","files":4,"time":1407934964,"description":"Movie Name\tTranscendence 2014 BRRip 1080p AC3 x264 Temporal\nDescription\t\nTorrentundereditby'insertnamehere'\n\n________ ______\n___ __/___________ ______________________________ ___ /\n__ / _ _ _ __ `__ __ __  __ _ ___/ __ `/_ /\n_ / / __/ / / / / /_ /_/ / /_/ / / / /_/ /_ /\n/_/ ___//_/ /_/ /_/_ .___/____//_/ __,_/ /_/\n/_/\n\nTranscendence 2014 BRRip 1080p AC3 x264 Temporal\n\n______ ___ _____________ ________ ________\n___ |/ /__________ /__(_)_____ _ ____ _/_________ __/_____\n__ /|_/ /_ _  __ /__ /_ __ `/ __ / __ __ _ /_ _ __ \n_ / / / / __/ /_/ / _ / / /_/ / __/ / _ / / / __/ / /_/ /\n/_/ /_/ ___/__,_/ /_/ __,_/ /___/ /_/ /_//_/ ____/\n\nFormat: Matroska\nFormat version: Version 2\nFile size: 1.96 GiB\nDuration: 1h 59mn\nOverall bit rate: 2 353 Kbps\nWriting application: HandBrake 0.9.9\nWriting library: libmkv 0.6.5\n\nVideo\nID: 1\nFormat: AVC\nFormat/Info: Advanced Video Codec\nFormat profile: &lt;a class=&quot;__cf_email__&quot; href=&quot;/cdn-cgi/l/email-protection&quot; data-cfemail=&quot;fab2939d92bab6ced4ca&quot;&gt;[email&amp;#160;protected]&lt;/a&gt;&lt;script cf-hash='f9e31' type=&quot;text/javascript&quot;&gt;\n/* &lt;![CDATA[ */!function(){try{var t=&quot;currentScript&quot;in document?document.currentScript:function(){for(var t=document.getElementsByTagName(&quot;script&quot;),e=t.length;e--;)if(t[e].getAttribute(&quot;cf-hash&quot;))return t[e]}();if(t&amp;&amp;t.previousSibling){var e,r,n,i,c=t.previousSibling,a=c.getAttribute(&quot;data-cfemail&quot;);if(a){for(e=&quot;&quot;,r=parseInt(a.substr(0,2),16),n=2;a.length-n;n+=2)i=parseInt(a.substr(n,2),16)^r,e+=String.fromCharCode(i);e=document.createTextNode(e),c.parentNode.replaceChild(e,c)}}}catch(u){}}();/* ]]&gt; */&lt;/script&gt;\nFormat settings, CABAC: Yes\nFormat settings, ReFrames: 4 frames\nCodec ID: V_MPEG4/ISO/AVC\nDuration: 1h 59mn\nBit rate: 1 900 Kbps\nWidth: 1 920 pixels\nHeight: 800 pixels\nDisplay aspect ratio: 2.40:1\nFrame rate mode: Constant\nFrame rate: 23.976 fps\nColor space: YUV\nChroma subsampling: 4:2:0\nBit depth: 8 bits\nScan type: Progressive\nBits/(Pixel*Frame): 0.052\nStream size: 1.55 GiB (79%)\nWriting library: x264 core 130 r2273 b3065e6\nLanguage: English\nDefault: Yes\nForced: No\nColor primaries: BT.709\nTransfer characteristics: BT.709\nMatrix coefficients: BT.709\n\nAudio\nID: 2\nFormat: AC-3\nFormat/Info: Audio Coding 3\nMode extension: CM (complete main)\nFormat settings, Endianness: Big\nCodec ID: A_AC3\nDuration: 1h 59mn\nBit rate mode: Constant\nBit rate: 448 Kbps\nChannel(s): 6 channels\nChannel positions: Front: L C R, Side: L R, LFE\nSampling rate: 48.0 KHz\nBit depth: 16 bits\nCompression mode: Lossy\nStream size: 382 MiB (19%)\nLanguage: English\nDefault: Yes\nForced: No\n________ _____ __________\n___ __ ___________________________(_)_________ /___(_)____________\n__ / / / _ _ ___/ ___/_ ___/_ /___ __  __/_ /_ __ _ __ \n_ /_/ // __/(__ )/ /__ _ / _ / __ /_/ / /_ _ / / /_/ / / / /\n/_____/ ___//____/ ___/ /_/ /_/ _ .___/__/ /_/ ____//_/ /_/\n/_/\n\n119 min - Drama | Mystery | Sci-Fi - 18 April 2014\n\nDr. Will Caster (Johnny Depp) is the foremost researcher in the field of Artificial Intelligence, working to create a sentient machine that combines the collective intelligence of everything ever known with the full range of human emotions. His highly controversial experiments have made him famous, but they have also made him the prime target of anti-technology extremists who will do whatever it takes to stop him. However, in their attempt to destroy Will, they inadvertently become the catalyst for him to succeed-to be a participant in his own transcendence. For his wife Evelyn (Rebecca Hall) and best friend Max Waters (Paul Bettany), both fellow researchers, the question is not if they can...but if they should. Their worst fears are realized as Will's thirst for knowledge evolves into a seemingly omnipresent quest for power, to what end is unknown. The only thing that is becoming terrifyingly clear is there may be no way to stop him\n\nIMDB Link: http://www.imdb.com/title/tt2209764/?ref_=nv_sr_2\n\n_____ __ _____\n___ | / /_______ /_____________\n__ |/ /_ __  __/ _ _ ___/\n_ /| / / /_/ / /_ / __/(__ )\n/_/ |_/ ____/__/ ___//____/\n\nSource(s) Encoder: Uncredited! - Thank You! ","torrent":{"xt":"urn:btih:fbe33fe0622d8fe1036748c995e97eab55f53c1d","amp;dn":"Transcendence+2014+BRRip+1080p+AC3+x264","amp;tr":["udp%3A%2F%2Ftracker.openbittorrent.com%3A80","udp%3A%2F%2Fopen.demonii.com%3A1337","udp%3A%2F%2Ftracker.coppersurfer.tk%3A6969","udp%3A%2F%2Fexodus.desync.com%3A6969"],"infoHash":"fbe33fe0622d8fe1036748c995e97eab55f53c1d","infoHashBuffer":{"type":"Buffer","data":[251,227,63,224,98,45,143,225,3,103,72,201,149,233,126,171,85,245,60,29]},"announce":[],"urlList":[]}}